Coordinates
version=1
nRows=16
nColumns=40
inDegrees=yes

Units are S.I. units (second, meters, Newtons, ...)
Angles are in degrees.

endheader
time	pelvis_tilt	pelvis_list	pelvis_rotation	pelvis_tx	pelvis_ty	pelvis_tz	hip_flexion_r	hip_adduction_r	hip_rotation_r	knee_angle_r	knee_angle_r_beta	ankle_angle_r	subtalar_angle_r	mtp_angle_r	hip_flexion_l	hip_adduction_l	hip_rotation_l	knee_angle_l	knee_angle_l_beta	ankle_angle_l	subtalar_angle_l	mtp_angle_l	lumbar_extension	lumbar_bending	lumbar_rotation	arm_flex_r	arm_add_r	arm_rot_r	elbow_flex_r	pro_sup_r	wrist_flex_r	wrist_dev_r	arm_flex_l	arm_add_l	arm_rot_l	elbow_flex_l	pro_sup_l	wrist_flex_l	wrist_dev_l
     28.42750000	     -6.87123321	     -6.51897147	      9.10245506	      0.77896439	      0.91259061	      0.43137701	      1.03490749	      5.11842551	    -15.64406687	     14.07386791	     14.07386791	     19.37673154	      0.15972831	     -0.31314633	     32.69670924	     -4.98676537	      9.27228724	     28.90931740	     28.90931740	      6.71709568	    -13.25756765	      7.09210313	    -10.16153232	      3.82599387	      6.62798019	     74.55391754	    -16.61793238	     10.39986537	     82.95000666	     44.84761455	      0.00000000	      0.00000000	    -25.23267850	    -10.72340016	     24.53883607	     40.02105781	     43.52791492	      0.00000000	      0.00000000
     28.44828571	     -6.95155719	     -6.49793077	      8.73967586	      0.78128391	      0.91255545	      0.42722750	      0.64827250	      4.73073239	    -15.79674552	     14.13556238	     14.13556238	     19.31713282	      0.98318896	     -0.65910343	     32.58297377	     -4.78773579	      9.18429948	     29.64218937	     29.64218937	      7.67164490	    -13.62586037	      7.97440806	    -10.04823554	      3.81907895	      6.72183967	     74.78036307	    -16.39829131	     10.62175873	     81.40215432	     44.90591964	      0.00000000	      0.00000000	    -24.93030469	    -11.03161064	     24.75174801	     39.97773605	     43.57911402	      0.00000000	      0.00000000
     28.46907143	     -7.02493672	     -6.46603049	      8.33031479	      0.78368116	      0.91259266	      0.42308350	      0.27508666	      4.38172709	    -15.51690119	     14.21134216	     14.21134216	     19.24565999	      1.19572027	     -0.67378254	     32.34000136	     -4.63297390	      8.97720634	     30.15651195	     30.15651195	      8.24267584	    -14.02636422	      7.84434033	     -9.96585763	      3.79651241	      6.77512246	     74.50344221	    -16.28314298	     10.71128377	     81.12936606	     44.91247022	      0.00000000	      0.00000000	    -24.66876315	    -11.32672749	     24.68165833	     39.96867532	     43.59782616	      0.00000000	      0.00000000
     28.48985714	     -7.08863173	     -6.45280939	      7.90498481	      0.78607723	      0.91269826	      0.41888009	     -0.06938033	      4.02935728	    -15.24817369	     14.33003698	     14.33003698	     19.14380169	      1.48464920	     -0.69553314	     32.03122282	     -4.50425821	      8.76375983	     30.58731410	     30.58731410	      8.84429266	    -14.36876781	      7.71253213	     -9.85745497	      3.80913735	      6.84308390	     74.18344296	    -16.28030141	     10.75725592	     80.69066750	     44.92538736	      0.00000000	      0.00000000	    -24.31284910	    -11.64587195	     24.57887813	     39.96631465	     43.61988250	      0.00000000	      0.00000000
     28.51064286	     -7.13313118	     -6.37751003	      7.45373997	      0.78839650	      0.91292481	      0.41449421	     -0.32360562	      3.47092734	    -15.49733743	     14.69044268	     14.69044268	     19.04462590	      2.50359659	     -1.00678126	     31.67664650	     -4.36639282	      8.30975782	     31.01281500	     31.01281500	      9.88172479	    -14.33767529	      8.44950916	     -9.67007153	      3.81374878	      6.99607994	     74.16835187	    -16.28616035	     10.56859720	     78.16374809	     45.02689615	      0.00000000	      0.00000000	    -23.72993708	    -11.89126488	     24.42127732	     39.59052488	     43.71965895	      0.00000000	      0.00000000
     28.53142857	     -7.16719242	     -6.34933223	      7.00225534	      0.79072271	      0.91331636	      0.41013651	     -0.56738650	      3.05073098	    -15.17847765	     14.99461051	     14.99461051	     18.83912730	      2.71518739	     -1.01687694	     31.20450142	     -4.25472353	      7.97459708	     31.20818733	     31.20818733	     10.48019708	    -14.54637818	      8.32945821	     -9.57736442	      3.88509324	      6.87225489	     73.49124451	    -16.23271818	     10.62439371	     77.73954549	     45.03758887	      0.00000000	      0.00000000	    -23.21887694	    -12.19121867	     24.26910193	     39.59393769	     43.75129211	      0.00000000	      0.00000000
     28.55221429	     -7.24870938	     -6.20205722	      6.50860536	      0.79295198	      0.91380620	      0.40565787	     -0.48466916	      2.33359863	    -15.19371653	     15.84785960	     15.84785960	     18.61319333	      3.34392949	     -1.44356567	     30.71147880	     -4.09353509	      7.33496012	     31.32443014	     31.32443014	     11.49370547	    -14.23234128	      9.06997498	     -9.36768924	      3.82156451	      6.65254948	     72.93370644	    -15.72162953	      9.69829139	     75.47443967	     45.16028455	      0.00000000	      0.00000000	    -22.40842241	    -12.06769094	     23.31602598	     38.54297480	     44.01687849	      0.00000000	      0.00000000
     28.57300000	     -7.28546212	     -6.10173763	      6.00829871	      0.79515373	      0.91449008	      0.40124055	     -0.26089867	      1.67564327	    -14.91003787	     16.98285784	     16.98285784	     18.29182018	      3.41178407	     -1.70849795	     30.09264550	     -3.99109803	      6.70482927	     31.24650339	     31.24650339	     12.08202477	    -14.07792313	      8.89333251	     -9.23677736	      3.82941199	      6.64090460	     71.79979577	    -15.98507188	      9.49145895	     74.74772176	     45.18946506	      0.00000000	      0.00000000	    -21.55536864	    -12.32873754	     22.90270969	     38.52844136	     44.10089893	      0.00000000	      0.00000000
     28.59378571	     -7.27423751	     -6.02371681	      5.49906350	      0.79730521	      0.91536273	      0.39682520	      0.18912362	      0.96442625	    -14.65026551	     18.59915355	     18.59915355	     17.85362225	      3.37782104	     -2.18883123	     29.39590096	     -3.92987808	      6.01321713	     31.09759081	     31.09759081	     12.62936116	    -13.84603927	      8.70015735	     -9.15197054	      3.88400412	      6.52360919	     70.39626470	    -16.15872845	      9.13542314	     73.94823028	     45.22423832	      0.00000000	      0.00000000	    -20.51749655	    -12.51563272	     22.48313245	     38.38903231	     44.18317142	      0.00000000	      0.00000000
     28.61457143	     -7.24195239	     -5.94060160	      4.97237637	      0.79929437	      0.91630656	      0.39250276	      1.05334609	      0.14305298	    -14.32452002	     20.99550876	     20.99550876	     17.26679733	      3.06627728	     -3.04171633	     28.66990308	     -3.89087031	      5.24097723	     30.90522645	     30.90522645	     13.14569319	    -13.51158288	      8.48536075	     -9.10334235	      3.93457860	      6.38364313	     68.67388882	    -16.27245337	      8.57956858	     73.04269484	     45.26770904	      0.00000000	      0.00000000	    -19.22805439	    -12.63676904	     21.99428133	     38.11913647	     44.27651285	      0.00000000	      0.00000000
     28.63535714	     -7.15659434	     -5.88410208	      4.44073979	      0.80116272	      0.91723803	      0.38820902	      2.27878819	     -0.73072945	    -13.91183952	     24.13188732	     24.13188732	     16.48640400	      2.35831277	     -4.23475366	     27.91645855	     -3.87213142	      4.45643112	     30.73013134	     30.73013134	     13.65118619	    -13.17383200	      8.26140488	     -9.10004755	      4.05666475	      6.16322293	     66.65352990	    -16.29361089	      7.92143090	     72.11151737	     45.31384830	      0.00000000	      0.00000000	    -17.72586098	    -12.70359616	     21.47810719	     37.78464371	     44.37424547	      0.00000000	      0.00000000
     28.65614286	     -7.07553795	     -5.85277666	      3.90580641	      0.80284157	      0.91798808	      0.38412101	      4.02126252	     -1.63406889	    -13.25106204	     28.15651059	     28.15651059	     15.35260000	      1.09521353	     -5.89813059	     27.22950978	     -3.87570722	      3.73306721	     30.62516298	     30.62516298	     14.11932066	    -12.80043597	      8.03060400	     -9.07478117	      4.18817530	      5.95516756	     64.29229418	    -16.22077326	      7.00917387	     71.07823603	     45.37049445	      0.00000000	      0.00000000	    -15.94529240	    -12.69728014	     20.86829415	     37.27998580	     44.48931296	      0.00000000	      0.00000000
     28.67692857	     -6.90220745	     -5.91899264	      3.38379274	      0.80438986	      0.91856470	      0.38028314	      5.92145730	     -2.24961331	    -12.06493121	     32.39103645	     32.39103645	     12.61963258	     -1.99371403	    -11.02530045	     26.57224606	     -3.98411059	      3.02979027	     30.71626132	     30.71626132	     14.69387391	    -12.46559228	      7.84767422	     -9.12967758	      4.47421382	      6.08329690	     61.28656479	    -15.56378672	      3.17592525	     69.78063230	     45.53317997	      0.00000000	      0.00000000	    -13.06842545	    -11.99579743	     18.97813244	     34.41689192	     44.83900386	      0.00000000	      0.00000000
     28.69771429	     -6.61173254	     -5.70452566	      2.88224317	      0.80580267	      0.91873656	      0.37635068	      8.28719473	     -3.44970428	    -11.29240011	     37.95415867	     37.95415867	     11.30141228	     -3.64537617	    -12.15690597	     25.80906444	     -3.75428133	      2.32947670	     30.86464396	     30.86464396	     15.19710738	    -12.38681611	      7.61007543	     -9.38857243	      4.47114255	      5.42853855	     58.43139202	    -15.38145755	      3.28182059	     68.81336725	     45.54736783	      0.00000000	      0.00000000	    -11.25125745	    -12.21267430	     18.60203360	     34.66748224	     44.92191457	      0.00000000	      0.00000000
     28.71850000	     -6.39271215	     -5.66458017	      2.41554614	      0.80698678	      0.91829220	      0.37279922	     10.95872126	     -4.12379758	     -9.85135478	     43.62392414	     43.62392414	      8.82772373	     -7.18867895	    -14.71578923	     25.32970629	     -3.65412087	      1.87708040	     31.31545629	     31.31545629	     15.78329994	    -12.49116125	      7.49948689	     -9.45667766	      4.66794934	      5.33357665	     54.95296816	    -15.13462130	      1.20430788	     67.41525281	     45.63703333	      0.00000000	      0.00000000	     -8.35783940	    -11.86584590	     17.16570295	     33.03051644	     45.22792751	      0.00000000	      0.00000000
     28.73928571	     -5.98315605	     -5.41255183	      1.98211686	      0.80813364	      0.91746677	      0.36926839	     13.65979365	     -5.08740759	     -8.56634191	     49.73945909	     49.73945909	      7.17467501	     -9.53482042	    -14.64871485	     24.69950235	     -3.28932661	      1.46909010	     31.88702770	     31.88702770	     16.37203721	    -12.81502009	      7.19792616	     -9.80596224	      4.68633994	      4.68288021	     51.61425112	    -14.91848558	      1.27903352	     66.03475332	     45.66309202	      0.00000000	      0.00000000	     -6.15828307	    -12.23517722	     16.89892122	     33.44107314	     45.29978361	      0.00000000	      0.00000000
